%FSLAX34Y34*%
%MOMM*%
%LNSOLDERMASK_BOTTOM*%
G71*
G01*
%ADD10C, 1.854*%
%ADD11C, 1.854*%
%ADD12C, 1.854*%
%ADD13C, 1.803*%
%ADD14C, 1.702*%
%ADD15C, 1.880*%
%ADD16C, 4.978*%
%ADD17C, 1.016*%
%ADD18C, 1.016*%
%ADD19R, 1.473X7.823*%
%ADD20C, 0.200*%
%ADD21C, 1.673*%
%ADD22R, 1.473X2.743*%
%LPD*%
X763270Y369570D02*
G54D10*
D03*
X661670Y369570D02*
G54D10*
D03*
X839470Y369570D02*
G54D10*
D03*
X941070Y369570D02*
G54D10*
D03*
X547370Y585470D02*
G54D10*
D03*
X445770Y585470D02*
G54D10*
D03*
X217170Y471170D02*
G54D10*
D03*
X318770Y471170D02*
G54D10*
D03*
X217170Y369570D02*
G54D10*
D03*
X318770Y369570D02*
G54D10*
D03*
X318770Y344170D02*
G54D10*
D03*
X217170Y344170D02*
G54D10*
D03*
X318770Y394970D02*
G54D10*
D03*
X217170Y394970D02*
G54D10*
D03*
X318770Y445770D02*
G54D10*
D03*
X217170Y445770D02*
G54D10*
D03*
X318770Y420370D02*
G54D10*
D03*
X217170Y420370D02*
G54D10*
D03*
X318770Y496570D02*
G54D10*
D03*
X217170Y496570D02*
G54D10*
D03*
X318770Y521970D02*
G54D10*
D03*
X217170Y521970D02*
G54D10*
D03*
X318770Y547370D02*
G54D10*
D03*
X217170Y547370D02*
G54D10*
D03*
X318770Y572770D02*
G54D10*
D03*
X318770Y598170D02*
G54D10*
D03*
X318770Y179070D02*
G54D10*
D03*
X217170Y179070D02*
G54D10*
D03*
X648970Y179070D02*
G54D10*
D03*
X941070Y153670D02*
G54D10*
D03*
X217170Y598170D02*
G54D10*
D03*
X217170Y572770D02*
G54D10*
D03*
X115570Y510540D02*
G54D11*
D03*
X115570Y487680D02*
G54D11*
D03*
X115570Y464820D02*
G54D11*
D03*
X115570Y441960D02*
G54D11*
D03*
X140970Y499110D02*
G54D11*
D03*
X140970Y476250D02*
G54D11*
D03*
X140970Y453390D02*
G54D11*
D03*
X115570Y419100D02*
G54D12*
D03*
X90170Y430530D02*
G54D11*
D03*
X90170Y453390D02*
G54D11*
D03*
X90170Y476250D02*
G54D11*
D03*
X90170Y499110D02*
G54D11*
D03*
X90170Y521970D02*
G54D11*
D03*
X839470Y153670D02*
G54D10*
D03*
X547370Y179070D02*
G54D10*
D03*
X140970Y521970D02*
G54D11*
D03*
X941070Y344170D02*
G54D10*
D03*
X839470Y344170D02*
G54D10*
D03*
G36*
X1046353Y149987D02*
X1064387Y149987D01*
X1064387Y131953D01*
X1046353Y131953D01*
X1046353Y149987D01*
G37*
X1080770Y140970D02*
G54D13*
D03*
X1106170Y140970D02*
G54D13*
D03*
X999236Y153670D02*
G54D14*
D03*
G36*
X970661Y162179D02*
X987679Y162179D01*
X987679Y145161D01*
X970661Y145161D01*
X970661Y162179D01*
G37*
X648970Y204470D02*
G54D15*
D03*
X648970Y255270D02*
G54D15*
D03*
X979170Y204470D02*
G54D15*
D03*
X979170Y255270D02*
G54D15*
D03*
X318770Y255270D02*
G54D15*
D03*
X318770Y204470D02*
G54D15*
D03*
X115570Y348742D02*
G54D16*
D03*
X115570Y598678D02*
G54D16*
D03*
G36*
X131699Y439801D02*
X150241Y439801D01*
X150241Y421259D01*
X131699Y421259D01*
X131699Y439801D01*
G37*
X300990Y607314D02*
G54D17*
D03*
X288798Y617474D02*
G54D17*
D03*
X958850Y356362D02*
G54D17*
D03*
X958850Y334264D02*
G54D17*
D03*
X958850Y251968D02*
G54D17*
D03*
X382524Y560324D02*
G54D17*
D03*
X382016Y547116D02*
G54D17*
D03*
X37592Y573024D02*
G54D17*
D03*
X907288Y445008D02*
G54D18*
D03*
X878840Y388366D02*
G54D18*
D03*
X950214Y230124D02*
G54D18*
D03*
X928370Y325374D02*
G54D18*
D03*
X928370Y261366D02*
G54D18*
D03*
X966470Y288544D02*
G54D18*
D03*
X966470Y239776D02*
G54D18*
D03*
X885190Y97536D02*
G54D18*
D03*
X778510Y41910D02*
G54D19*
D03*
X1057910Y41910D02*
G54D19*
D03*
X1032510Y41910D02*
G54D19*
D03*
X1007110Y41910D02*
G54D19*
D03*
X981710Y41910D02*
G54D19*
D03*
X956310Y41910D02*
G54D19*
D03*
X930910Y41910D02*
G54D19*
D03*
X905510Y41910D02*
G54D19*
D03*
X880110Y41910D02*
G54D19*
D03*
X854710Y41910D02*
G54D19*
D03*
X829310Y41910D02*
G54D19*
D03*
X803910Y41910D02*
G54D19*
D03*
X753110Y41910D02*
G54D19*
D03*
X727710Y41910D02*
G54D19*
D03*
X702310Y41910D02*
G54D19*
D03*
X676910Y41910D02*
G54D19*
D03*
X651510Y41910D02*
G54D19*
D03*
X626110Y41910D02*
G54D19*
D03*
X600710Y41910D02*
G54D19*
D03*
X575310Y41910D02*
G54D19*
D03*
X549910Y41910D02*
G54D19*
D03*
X524510Y41910D02*
G54D19*
D03*
X499110Y41910D02*
G54D19*
D03*
X473710Y41910D02*
G54D19*
D03*
X448310Y41910D02*
G54D19*
D03*
G36*
X1022604Y267970D02*
X1138936Y267970D01*
X1138936Y359410D01*
X1022604Y359410D01*
X1022604Y267970D01*
G37*
G54D20*
X1022604Y267970D02*
X1138936Y267970D01*
X1138936Y359410D01*
X1022604Y359410D01*
X1022604Y267970D01*
G36*
X1028700Y261874D02*
X1132840Y261874D01*
X1132840Y365506D01*
X1028700Y365506D01*
X1028700Y261874D01*
G37*
G54D20*
X1028700Y261874D02*
X1132840Y261874D01*
X1132840Y365506D01*
X1028700Y365506D01*
X1028700Y261874D01*
G54D20*
G75*
G01X1138936Y267970D02*
G03X1138936Y267970I-6096J0D01*
G01*
G36*
G75*
G01X1138936Y267970D02*
G03X1138936Y267970I-6096J0D01*
G01*
G37*
X1138936Y267970D01*
G54D20*
G75*
G01X1034796Y267970D02*
G03X1034796Y267970I-6096J0D01*
G01*
G36*
G75*
G01X1034796Y267970D02*
G03X1034796Y267970I-6096J0D01*
G01*
G37*
X1034796Y267970D01*
G54D20*
G75*
G01X1034796Y359410D02*
G03X1034796Y359410I-6096J0D01*
G01*
G36*
G75*
G01X1034796Y359410D02*
G03X1034796Y359410I-6096J0D01*
G01*
G37*
X1034796Y359410D01*
G54D20*
G75*
G01X1138936Y359410D02*
G03X1138936Y359410I-6096J0D01*
G01*
G36*
G75*
G01X1138936Y359410D02*
G03X1138936Y359410I-6096J0D01*
G01*
G37*
X1138936Y359410D01*
G54D21*
X52070Y198120D02*
X52070Y210820D01*
G54D21*
X77470Y198120D02*
X77470Y210820D01*
G54D21*
X102870Y198120D02*
X102870Y210820D01*
G54D21*
X128270Y198120D02*
X128270Y210820D01*
G54D21*
X153670Y198120D02*
X153670Y210820D01*
G54D21*
X179070Y198120D02*
X179070Y210820D01*
G54D21*
X204470Y198120D02*
X204470Y210820D01*
G54D21*
X229870Y198120D02*
X229870Y210820D01*
G54D21*
X255270Y198120D02*
X255270Y210820D01*
G54D21*
X280670Y198120D02*
X280670Y210820D01*
G54D21*
X52070Y274320D02*
X52070Y287020D01*
G54D21*
X77470Y274320D02*
X77470Y287020D01*
G54D21*
X102870Y274320D02*
X102870Y287020D01*
G54D21*
X128270Y274320D02*
X128270Y287020D01*
G54D21*
X153670Y274320D02*
X153670Y287020D01*
G54D21*
X179070Y274320D02*
X179070Y287020D01*
G54D21*
X204470Y274320D02*
X204470Y287020D01*
G54D21*
X229870Y274320D02*
X229870Y287020D01*
G54D21*
X255270Y274320D02*
X255270Y287020D01*
G54D21*
X382270Y198120D02*
X382270Y210820D01*
G54D21*
X407670Y198120D02*
X407670Y210820D01*
G54D21*
X433070Y198120D02*
X433070Y210820D01*
G54D21*
X458470Y198120D02*
X458470Y210820D01*
G54D21*
X483870Y198120D02*
X483870Y210820D01*
G54D21*
X509270Y198120D02*
X509270Y210820D01*
G54D21*
X534670Y198120D02*
X534670Y210820D01*
G54D21*
X560070Y198120D02*
X560070Y210820D01*
G54D21*
X610870Y198120D02*
X610870Y210820D01*
G54D21*
X382270Y274320D02*
X382270Y287020D01*
G54D21*
X407670Y274320D02*
X407670Y287020D01*
G54D21*
X433070Y274320D02*
X433070Y287020D01*
G54D21*
X458470Y274320D02*
X458470Y287020D01*
G54D21*
X483870Y274320D02*
X483870Y287020D01*
G54D21*
X509270Y274320D02*
X509270Y287020D01*
G54D21*
X534670Y274320D02*
X534670Y287020D01*
G54D21*
X560070Y274320D02*
X560070Y287020D01*
G54D21*
X585470Y274320D02*
X585470Y287020D01*
G54D21*
X712470Y198120D02*
X712470Y210820D01*
G54D21*
X737870Y198120D02*
X737870Y210820D01*
G54D21*
X763270Y198120D02*
X763270Y210820D01*
G54D21*
X788670Y198120D02*
X788670Y210820D01*
G54D21*
X814070Y198120D02*
X814070Y210820D01*
G54D21*
X839470Y198120D02*
X839470Y210820D01*
G54D21*
X864870Y198120D02*
X864870Y210820D01*
G54D21*
X890270Y198120D02*
X890270Y210820D01*
G54D21*
X941070Y198120D02*
X941070Y210820D01*
G54D21*
X712470Y274320D02*
X712470Y287020D01*
G54D21*
X737870Y274320D02*
X737870Y287020D01*
G54D21*
X763270Y274320D02*
X763270Y287020D01*
G54D21*
X788670Y274320D02*
X788670Y287020D01*
G54D21*
X814070Y274320D02*
X814070Y287020D01*
G54D21*
X839470Y274320D02*
X839470Y287020D01*
G54D21*
X864870Y274320D02*
X864870Y287020D01*
G54D21*
X890270Y274320D02*
X890270Y287020D01*
G54D21*
X915670Y274320D02*
X915670Y287020D01*
G54D21*
X915670Y198120D02*
X915670Y210820D01*
G54D21*
X585470Y198120D02*
X585470Y210820D01*
G54D21*
X966470Y401320D02*
X966470Y414020D01*
G54D21*
X991870Y401320D02*
X991870Y414020D01*
G54D21*
X1068070Y579120D02*
X1068070Y591820D01*
G54D21*
X1042670Y579120D02*
X1042670Y591820D01*
G54D21*
X1017270Y579120D02*
X1017270Y591820D01*
G54D21*
X991870Y579120D02*
X991870Y591820D01*
G54D21*
X966470Y579120D02*
X966470Y591820D01*
G54D21*
X941070Y579120D02*
X941070Y591820D01*
G54D21*
X915670Y579120D02*
X915670Y591820D01*
G54D21*
X890270Y579120D02*
X890270Y591820D01*
G54D21*
X864870Y579120D02*
X864870Y591820D01*
G54D21*
X839470Y579120D02*
X839470Y591820D01*
G54D21*
X814070Y579120D02*
X814070Y591820D01*
G54D21*
X788670Y579120D02*
X788670Y591820D01*
G54D21*
X763270Y579120D02*
X763270Y591820D01*
G54D21*
X737870Y579120D02*
X737870Y591820D01*
G54D21*
X712470Y579120D02*
X712470Y591820D01*
G54D21*
X687070Y579120D02*
X687070Y591820D01*
G54D21*
X661670Y579120D02*
X661670Y591820D01*
G54D21*
X636270Y579120D02*
X636270Y591820D01*
G54D21*
X610870Y579120D02*
X610870Y591820D01*
G54D21*
X585470Y579120D02*
X585470Y591820D01*
G54D21*
X1068070Y401320D02*
X1068070Y414020D01*
G54D21*
X1042670Y401320D02*
X1042670Y414020D01*
G54D21*
X1017270Y401320D02*
X1017270Y414020D01*
G54D21*
X941070Y401320D02*
X941070Y414020D01*
G54D21*
X915670Y401320D02*
X915670Y414020D01*
G54D21*
X890270Y401320D02*
X890270Y414020D01*
G54D21*
X864870Y401320D02*
X864870Y414020D01*
G54D21*
X839470Y401320D02*
X839470Y414020D01*
G54D21*
X814070Y401320D02*
X814070Y414020D01*
G54D21*
X788670Y401320D02*
X788670Y414020D01*
G54D21*
X763270Y401320D02*
X763270Y414020D01*
G54D21*
X737870Y401320D02*
X737870Y414020D01*
G54D21*
X712470Y401320D02*
X712470Y414020D01*
G54D21*
X687070Y401320D02*
X687070Y414020D01*
G54D21*
X661670Y401320D02*
X661670Y414020D01*
G54D21*
X636270Y401320D02*
X636270Y414020D01*
G54D21*
X610870Y401320D02*
X610870Y414020D01*
X280670Y280670D02*
G54D22*
D03*
X610870Y280670D02*
G54D22*
D03*
X941070Y280670D02*
G54D22*
D03*
X585470Y407670D02*
G54D22*
D03*
G36*
X427990Y81220D02*
X1076835Y80970D01*
X1076960Y1270D01*
X427990Y1270D01*
X427990Y81220D01*
G37*
M02*
